<svg xmlns="http://www.w3.org/2000/svg" width="800" height="800" viewBox="0 0 800 800" font-family="sans-serif">
<rect width="800" height="800" fill="#0b0e14"/>
<line x1="0.0" y1="0" x2="0.0" y2="800" stroke="#161d2c" stroke-width="1"/><line x1="0" y1="0.0" x2="800" y2="0.0" stroke="#161d2c" stroke-width="1"/>
<line x1="80.0" y1="0" x2="80.0" y2="800" stroke="#161d2c" stroke-width="1"/><line x1="0" y1="80.0" x2="800" y2="80.0" stroke="#161d2c" stroke-width="1"/>
<line x1="160.0" y1="0" x2="160.0" y2="800" stroke="#161d2c" stroke-width="1"/><line x1="0" y1="160.0" x2="800" y2="160.0" stroke="#161d2c" stroke-width="1"/>
<line x1="240.0" y1="0" x2="240.0" y2="800" stroke="#161d2c" stroke-width="1"/><line x1="0" y1="240.0" x2="800" y2="240.0" stroke="#161d2c" stroke-width="1"/>
<line x1="320.0" y1="0" x2="320.0" y2="800" stroke="#161d2c" stroke-width="1"/><line x1="0" y1="320.0" x2="800" y2="320.0" stroke="#161d2c" stroke-width="1"/>
<line x1="400.0" y1="0" x2="400.0" y2="800" stroke="#161d2c" stroke-width="1"/><line x1="0" y1="400.0" x2="800" y2="400.0" stroke="#161d2c" stroke-width="1"/>
<line x1="480.0" y1="0" x2="480.0" y2="800" stroke="#161d2c" stroke-width="1"/><line x1="0" y1="480.0" x2="800" y2="480.0" stroke="#161d2c" stroke-width="1"/>
<line x1="560.0" y1="0" x2="560.0" y2="800" stroke="#161d2c" stroke-width="1"/><line x1="0" y1="560.0" x2="800" y2="560.0" stroke="#161d2c" stroke-width="1"/>
<line x1="640.0" y1="0" x2="640.0" y2="800" stroke="#161d2c" stroke-width="1"/><line x1="0" y1="640.0" x2="800" y2="640.0" stroke="#161d2c" stroke-width="1"/>
<line x1="720.0" y1="0" x2="720.0" y2="800" stroke="#161d2c" stroke-width="1"/><line x1="0" y1="720.0" x2="800" y2="720.0" stroke="#161d2c" stroke-width="1"/>
<line x1="800.0" y1="0" x2="800.0" y2="800" stroke="#161d2c" stroke-width="1"/><line x1="0" y1="800.0" x2="800" y2="800.0" stroke="#161d2c" stroke-width="1"/>
<rect x="1" y="1" width="798" height="798" fill="none" stroke="#4ea1ff" stroke-opacity="0.5" stroke-width="2"/>
<rect x="144.0" y="152.0" width="152.0" height="17.6" fill="#39435c" stroke="#5a6b8c" stroke-width="1"/>
<rect x="144.0" y="152.0" width="17.6" height="128.0" fill="#39435c" stroke="#5a6b8c" stroke-width="1"/>
<rect x="208.0" y="208.0" width="36.0" height="36.0" fill="#39435c" stroke="#5a6b8c" stroke-width="1"/>
<rect x="504.0" y="630.4" width="152.0" height="17.6" fill="#39435c" stroke="#5a6b8c" stroke-width="1"/>
<rect x="638.4" y="520.0" width="17.6" height="128.0" fill="#39435c" stroke="#5a6b8c" stroke-width="1"/>
<rect x="556.0" y="556.0" width="36.0" height="36.0" fill="#39435c" stroke="#5a6b8c" stroke-width="1"/>
<rect x="600.0" y="168.0" width="48.0" height="48.0" fill="#39435c" stroke="#5a6b8c" stroke-width="1"/>
<rect x="544.0" y="240.0" width="36.0" height="36.0" fill="#39435c" stroke="#5a6b8c" stroke-width="1"/>
<rect x="152.0" y="584.0" width="48.0" height="48.0" fill="#39435c" stroke="#5a6b8c" stroke-width="1"/>
<rect x="220.0" y="524.0" width="36.0" height="36.0" fill="#39435c" stroke="#5a6b8c" stroke-width="1"/>
<rect x="360.0" y="328.0" width="32.0" height="32.0" fill="#39435c" stroke="#5a6b8c" stroke-width="1"/>
<rect x="408.0" y="440.0" width="32.0" height="32.0" fill="#39435c" stroke="#5a6b8c" stroke-width="1"/>
<rect x="304.0" y="120.0" width="80.0" height="12.0" fill="#39435c" stroke="#5a6b8c" stroke-width="1"/>
<rect x="416.0" y="120.0" width="80.0" height="12.0" fill="#39435c" stroke="#5a6b8c" stroke-width="1"/>
<rect x="304.0" y="668.0" width="80.0" height="12.0" fill="#39435c" stroke="#5a6b8c" stroke-width="1"/>
<rect x="416.0" y="668.0" width="80.0" height="12.0" fill="#39435c" stroke="#5a6b8c" stroke-width="1"/>
<rect x="120.0" y="304.0" width="12.0" height="80.0" fill="#39435c" stroke="#5a6b8c" stroke-width="1"/>
<rect x="120.0" y="416.0" width="12.0" height="80.0" fill="#39435c" stroke="#5a6b8c" stroke-width="1"/>
<rect x="668.0" y="304.0" width="12.0" height="80.0" fill="#39435c" stroke="#5a6b8c" stroke-width="1"/>
<rect x="668.0" y="416.0" width="12.0" height="80.0" fill="#39435c" stroke="#5a6b8c" stroke-width="1"/>
<circle cx="400.0" cy="400.0" r="8" fill="#2ecc71"/><text x="400.0" y="403.5" fill="#04210f" font-size="10" font-weight="bold" text-anchor="middle">+</text>
<circle cx="192.0" cy="200.0" r="8" fill="#2ecc71"/><text x="192.0" y="203.5" fill="#04210f" font-size="10" font-weight="bold" text-anchor="middle">+</text>
<circle cx="608.0" cy="600.0" r="8" fill="#2ecc71"/><text x="608.0" y="603.5" fill="#04210f" font-size="10" font-weight="bold" text-anchor="middle">+</text>
<circle cx="400.0" cy="144.0" r="8" fill="#2ecc71"/><text x="400.0" y="147.5" fill="#04210f" font-size="10" font-weight="bold" text-anchor="middle">+</text>
<circle cx="400.0" cy="656.0" r="8" fill="#2ecc71"/><text x="400.0" y="659.5" fill="#04210f" font-size="10" font-weight="bold" text-anchor="middle">+</text>
<circle cx="88.0" cy="88.0" r="7" fill="none" stroke="#ffd166" stroke-width="2"/><circle cx="88.0" cy="88.0" r="2" fill="#ffd166"/>
<circle cx="712.0" cy="88.0" r="7" fill="none" stroke="#ffd166" stroke-width="2"/><circle cx="712.0" cy="88.0" r="2" fill="#ffd166"/>
<circle cx="88.0" cy="712.0" r="7" fill="none" stroke="#ffd166" stroke-width="2"/><circle cx="88.0" cy="712.0" r="2" fill="#ffd166"/>
<circle cx="712.0" cy="712.0" r="7" fill="none" stroke="#ffd166" stroke-width="2"/><circle cx="712.0" cy="712.0" r="2" fill="#ffd166"/>
<circle cx="400.0" cy="64.0" r="7" fill="none" stroke="#ffd166" stroke-width="2"/><circle cx="400.0" cy="64.0" r="2" fill="#ffd166"/>
<circle cx="400.0" cy="736.0" r="7" fill="none" stroke="#ffd166" stroke-width="2"/><circle cx="400.0" cy="736.0" r="2" fill="#ffd166"/>
<circle cx="64.0" cy="400.0" r="7" fill="none" stroke="#ffd166" stroke-width="2"/><circle cx="64.0" cy="400.0" r="2" fill="#ffd166"/>
<circle cx="736.0" cy="400.0" r="7" fill="none" stroke="#ffd166" stroke-width="2"/><circle cx="736.0" cy="400.0" r="2" fill="#ffd166"/>
<g transform="translate(12,12)" font-size="13">
<rect x="0" y="0" width="190" height="74" fill="#11161f" stroke="#2a3346" rx="5"/>
<rect x="10" y="12" width="14" height="10" fill="#39435c" stroke="#5a6b8c"/><text x="32" y="21" fill="#c8d2e0">Walls (cover / LOS)</text>
<circle cx="17" cy="38" r="6" fill="#2ecc71"/><text x="32" y="42" fill="#c8d2e0">Health pack</text>
<circle cx="17" cy="58" r="6" fill="none" stroke="#ffd166" stroke-width="2"/><text x="32" y="62" fill="#c8d2e0">Spawn point</text>
</g>
<text x="788" y="788" fill="#5a6b8c" font-size="12" text-anchor="end">Cow Map — 2000×2000 (1px = 2.5u)</text>
</svg>